<svg version="1" xmlns="http://www.w3.org/2000/svg" width="682.667" height="682.667" viewBox="0 0 512.000000 512.000000"><path d="M0 256v256h512V0H0v256zm215.9-54.3c22.9 56.2 41.9 101.8 42.3 101.5.4-.4 18-46.4 39.1-102.2l38.5-101.5 59.1-.3L454 99v52h-26v182h26v51H348v-51h19l-.1-81.3c0-51.5-.4-80.5-1-79.2-.5 1.1-19.5 48.3-42.3 105l-41.4 103-26.1.3-26.2.2-2.3-5.3c-1.3-2.9-20.7-48.9-43.1-102.2-22.4-53.4-40.9-97.2-41.1-97.4-.2-.2-.4 35-.4 78.2V333h21v51H57v-50.9l13.3-.3 13.2-.3.3-90.8.2-90.7H57V99l58.6.2 58.6.3 41.7 102.2z"/></svg>